<mxfile host="app.diagrams.net" modified="2022-03-28T10:15:43.360Z" agent="5.0 (Windows NT 10.0; WOW64) AppleWebKit/537.36 (KHTML, like Gecko) Chrome/69.0.3497.81 Safari/537.36 Maxthon/5.3.8.2000" etag="z1UqGfIomhmSKCeyJCnZ" version="17.2.4" type="github">
  <diagram id="EVS7YW1srhj428SrQKvM" name="第 1 页">
    <mxGraphModel dx="2188" dy="1183" grid="1" gridSize="10" guides="1" tooltips="1" connect="1" arrows="1" fold="1" page="1" pageScale="1" pageWidth="1200" pageHeight="1600" math="0" shadow="0">
      <root>
        <mxCell id="0" />
        <mxCell id="1" parent="0" />
        <mxCell id="5eozCe6tMsFJtmX1JUYB-4" style="edgeStyle=orthogonalEdgeStyle;rounded=0;orthogonalLoop=1;jettySize=auto;html=1;exitX=0.5;exitY=1;exitDx=0;exitDy=0;entryX=0.5;entryY=0;entryDx=0;entryDy=0;" edge="1" parent="1" source="5eozCe6tMsFJtmX1JUYB-1" target="5eozCe6tMsFJtmX1JUYB-3">
          <mxGeometry relative="1" as="geometry" />
        </mxCell>
        <mxCell id="5eozCe6tMsFJtmX1JUYB-1" value="java" style="rounded=0;whiteSpace=wrap;html=1;fillColor=#e1d5e7;strokeColor=#9673a6;" vertex="1" parent="1">
          <mxGeometry x="380" y="270" width="120" height="60" as="geometry" />
        </mxCell>
        <mxCell id="5eozCe6tMsFJtmX1JUYB-21" style="edgeStyle=orthogonalEdgeStyle;rounded=0;orthogonalLoop=1;jettySize=auto;html=1;exitX=0.5;exitY=1;exitDx=0;exitDy=0;" edge="1" parent="1" source="5eozCe6tMsFJtmX1JUYB-2" target="5eozCe6tMsFJtmX1JUYB-20">
          <mxGeometry relative="1" as="geometry" />
        </mxCell>
        <mxCell id="5eozCe6tMsFJtmX1JUYB-2" value="修改java的bootstrap.yml" style="rounded=0;whiteSpace=wrap;html=1;fillColor=#f5f5f5;fontColor=#333333;strokeColor=#666666;" vertex="1" parent="1">
          <mxGeometry x="380" y="470" width="120" height="60" as="geometry" />
        </mxCell>
        <mxCell id="5eozCe6tMsFJtmX1JUYB-5" style="edgeStyle=orthogonalEdgeStyle;rounded=0;orthogonalLoop=1;jettySize=auto;html=1;exitX=0.5;exitY=1;exitDx=0;exitDy=0;" edge="1" parent="1" source="5eozCe6tMsFJtmX1JUYB-3" target="5eozCe6tMsFJtmX1JUYB-2">
          <mxGeometry relative="1" as="geometry" />
        </mxCell>
        <mxCell id="5eozCe6tMsFJtmX1JUYB-3" value="将acm的配置转移到MSE的Nacos" style="rounded=0;whiteSpace=wrap;html=1;" vertex="1" parent="1">
          <mxGeometry x="380" y="370" width="120" height="60" as="geometry" />
        </mxCell>
        <mxCell id="5eozCe6tMsFJtmX1JUYB-15" value="" style="edgeStyle=orthogonalEdgeStyle;rounded=0;orthogonalLoop=1;jettySize=auto;html=1;" edge="1" parent="1" source="5eozCe6tMsFJtmX1JUYB-11" target="5eozCe6tMsFJtmX1JUYB-2">
          <mxGeometry relative="1" as="geometry" />
        </mxCell>
        <mxCell id="5eozCe6tMsFJtmX1JUYB-11" value="&lt;h1&gt;修改内容如下&lt;/h1&gt;&lt;pre style=&quot;background-color: #2b2b2b ; color: #a9b7c6 ; font-family: &amp;#34;jetbrains mono&amp;#34; , monospace ; font-size: 9.8pt&quot;&gt;&lt;span style=&quot;color: #cc7832&quot;&gt;cloud&lt;/span&gt;:&lt;br&gt;  &lt;span style=&quot;color: #cc7832&quot;&gt;nacos&lt;/span&gt;:&lt;br&gt;    &lt;span style=&quot;color: #cc7832&quot;&gt;config&lt;/span&gt;:&lt;br&gt;      &lt;span style=&quot;color: #cc7832&quot;&gt;group&lt;/span&gt;: erp &lt;span style=&quot;color: #629755 ; font-style: italic&quot;&gt;#&lt;/span&gt;&lt;span style=&quot;color: #629755 ; font-style: italic ; font-family: &amp;#34;宋体&amp;#34; , monospace&quot;&gt;对应&lt;/span&gt;&lt;span style=&quot;color: #629755 ; font-style: italic&quot;&gt;Group&lt;br&gt;&lt;/span&gt;&lt;span style=&quot;color: #629755 ; font-style: italic&quot;&gt;      &lt;/span&gt;&lt;span style=&quot;color: #cc7832&quot;&gt;server-addr&lt;/span&gt;: mse-f96a9740-nacos-ans.mse.aliyuncs.com &lt;span style=&quot;color: #629755 ; font-style: italic ; font-family: &amp;#34;宋体&amp;#34; , monospace&quot;&gt;&lt;br&gt;&lt;/span&gt;&lt;span style=&quot;color: #629755 ; font-style: italic ; font-family: &amp;#34;宋体&amp;#34; , monospace&quot;&gt;      &lt;/span&gt;&lt;span style=&quot;color: #cc7832&quot;&gt;file-extension&lt;/span&gt;: yml &lt;span style=&quot;color: #629755 ; font-style: italic ; font-family: &amp;#34;宋体&amp;#34; , monospace&quot;&gt;&lt;br&gt;&lt;/span&gt;&lt;span style=&quot;color: #629755 ; font-style: italic ; font-family: &amp;#34;宋体&amp;#34; , monospace&quot;&gt;      &lt;/span&gt;&lt;span style=&quot;color: #cc7832&quot;&gt;refresh-enabled&lt;/span&gt;: &lt;span style=&quot;color: #cc7832&quot;&gt;true &lt;/span&gt;&lt;span style=&quot;color: #629755 ; font-style: italic&quot;&gt;#&lt;/span&gt;&lt;span style=&quot;color: #629755 ; font-style: italic ; font-family: &amp;#34;宋体&amp;#34; , monospace&quot;&gt;自动刷新&lt;br&gt;&lt;/span&gt;&lt;span style=&quot;color: #629755 ; font-style: italic ; font-family: &amp;#34;宋体&amp;#34; , monospace&quot;&gt;      &lt;/span&gt;&lt;span style=&quot;color: #cc7832&quot;&gt;name&lt;/span&gt;: scm_open_api_java &lt;span style=&quot;color: #629755 ; font-style: italic&quot;&gt;#&lt;/span&gt;&lt;span style=&quot;color: #629755 ; font-style: italic ; font-family: &amp;#34;宋体&amp;#34; , monospace&quot;&gt;对应&lt;/span&gt;&lt;span style=&quot;color: #629755 ; font-style: italic&quot;&gt;Data ID&lt;br&gt;&lt;/span&gt;&lt;span style=&quot;color: #629755 ; font-style: italic&quot;&gt;      &lt;/span&gt;&lt;span style=&quot;color: #cc7832&quot;&gt;extension-configs&lt;/span&gt;:&lt;br&gt;        - &lt;span style=&quot;color: #cc7832&quot;&gt;dataId&lt;/span&gt;: spring_public_java.yml &lt;span style=&quot;color: #629755 ; font-style: italic ; font-family: &amp;#34;宋体&amp;#34; , monospace&quot;&gt;&lt;br&gt;&lt;/span&gt;&lt;span style=&quot;color: #629755 ; font-style: italic ; font-family: &amp;#34;宋体&amp;#34; , monospace&quot;&gt;          &lt;/span&gt;&lt;span style=&quot;color: #cc7832&quot;&gt;group&lt;/span&gt;: tr &lt;span style=&quot;color: #629755 ; font-style: italic&quot;&gt;#&lt;/span&gt;&lt;span style=&quot;color: #629755 ; font-style: italic ; font-family: &amp;#34;宋体&amp;#34; , monospace&quot;&gt;对应&lt;/span&gt;&lt;span style=&quot;color: #629755 ; font-style: italic&quot;&gt;Group&lt;/span&gt;&lt;br&gt;&lt;/pre&gt;" style="text;html=1;strokeColor=#666666;fillColor=#f5f5f5;spacing=5;spacingTop=-20;whiteSpace=wrap;overflow=hidden;rounded=0;fontColor=#333333;" vertex="1" parent="1">
          <mxGeometry x="550" y="378.75" width="470" height="242.5" as="geometry" />
        </mxCell>
        <mxCell id="5eozCe6tMsFJtmX1JUYB-63" style="edgeStyle=orthogonalEdgeStyle;rounded=0;orthogonalLoop=1;jettySize=auto;html=1;exitX=0.5;exitY=1;exitDx=0;exitDy=0;" edge="1" parent="1" source="5eozCe6tMsFJtmX1JUYB-16" target="5eozCe6tMsFJtmX1JUYB-62">
          <mxGeometry relative="1" as="geometry" />
        </mxCell>
        <mxCell id="5eozCe6tMsFJtmX1JUYB-16" value="修改k8s容器的环境变量" style="rounded=0;whiteSpace=wrap;html=1;fillColor=#dae8fc;strokeColor=#6c8ebf;" vertex="1" parent="1">
          <mxGeometry x="380" y="730" width="120" height="60" as="geometry" />
        </mxCell>
        <mxCell id="5eozCe6tMsFJtmX1JUYB-19" value="" style="edgeStyle=orthogonalEdgeStyle;rounded=0;orthogonalLoop=1;jettySize=auto;html=1;" edge="1" parent="1" source="5eozCe6tMsFJtmX1JUYB-18" target="5eozCe6tMsFJtmX1JUYB-16">
          <mxGeometry relative="1" as="geometry" />
        </mxCell>
        <mxCell id="5eozCe6tMsFJtmX1JUYB-18" value="&lt;h1&gt;修改内容如下&lt;/h1&gt;&lt;div&gt;环境变量：&lt;/div&gt;&lt;div&gt;&lt;span style=&quot;white-space: pre&quot;&gt;	&lt;/span&gt;&lt;br&gt;&lt;/div&gt;&lt;div&gt;&lt;span style=&quot;white-space: pre&quot;&gt;	&lt;/span&gt;类型&amp;nbsp; &amp;nbsp; &amp;nbsp; &amp;nbsp; &amp;nbsp; &amp;nbsp; 变量名称&lt;span style=&quot;white-space: pre&quot;&gt;	&lt;/span&gt;&lt;span style=&quot;white-space: pre&quot;&gt;	&lt;/span&gt;变量/变量引用&lt;br&gt;&lt;/div&gt;&lt;div&gt;&amp;nbsp; &amp;nbsp; &amp;nbsp; &amp;nbsp;&amp;nbsp;&lt;/div&gt;&lt;div&gt;&amp;nbsp; &amp;nbsp; &amp;nbsp; &amp;nbsp; 保密字典&amp;nbsp; &amp;nbsp; secret_params&amp;nbsp;&lt;span style=&quot;white-space: pre&quot;&gt;	&lt;/span&gt;app-secre：JAVA_APP_SECRET_PARAMS_MSE&lt;/div&gt;&lt;div&gt;&lt;br&gt;&lt;/div&gt;" style="text;html=1;strokeColor=#6c8ebf;fillColor=#dae8fc;spacing=5;spacingTop=-20;whiteSpace=wrap;overflow=hidden;rounded=0;" vertex="1" parent="1">
          <mxGeometry x="550" y="674.6899999999999" width="470" height="170.62" as="geometry" />
        </mxCell>
        <mxCell id="5eozCe6tMsFJtmX1JUYB-22" style="edgeStyle=orthogonalEdgeStyle;rounded=0;orthogonalLoop=1;jettySize=auto;html=1;exitX=0.5;exitY=1;exitDx=0;exitDy=0;" edge="1" parent="1" source="5eozCe6tMsFJtmX1JUYB-20" target="5eozCe6tMsFJtmX1JUYB-16">
          <mxGeometry relative="1" as="geometry" />
        </mxCell>
        <mxCell id="5eozCe6tMsFJtmX1JUYB-20" value="构建" style="rounded=0;whiteSpace=wrap;html=1;fillColor=#ffe6cc;strokeColor=#d79b00;" vertex="1" parent="1">
          <mxGeometry x="380" y="590" width="120" height="60" as="geometry" />
        </mxCell>
        <mxCell id="5eozCe6tMsFJtmX1JUYB-49" style="edgeStyle=orthogonalEdgeStyle;rounded=0;orthogonalLoop=1;jettySize=auto;html=1;exitX=0.5;exitY=1;exitDx=0;exitDy=0;entryX=0.5;entryY=0;entryDx=0;entryDy=0;" edge="1" parent="1" target="5eozCe6tMsFJtmX1JUYB-54">
          <mxGeometry relative="1" as="geometry">
            <mxPoint x="1449.9999999999995" y="320" as="sourcePoint" />
          </mxGeometry>
        </mxCell>
        <mxCell id="5eozCe6tMsFJtmX1JUYB-50" value="core" style="rounded=0;whiteSpace=wrap;html=1;fillColor=#e1d5e7;strokeColor=#9673a6;" vertex="1" parent="1">
          <mxGeometry x="1390" y="260" width="120" height="60" as="geometry" />
        </mxCell>
        <mxCell id="5eozCe6tMsFJtmX1JUYB-66" style="edgeStyle=orthogonalEdgeStyle;rounded=0;orthogonalLoop=1;jettySize=auto;html=1;exitX=0.5;exitY=1;exitDx=0;exitDy=0;entryX=0.5;entryY=0;entryDx=0;entryDy=0;fontSize=34;fontColor=none;" edge="1" parent="1" source="5eozCe6tMsFJtmX1JUYB-52" target="5eozCe6tMsFJtmX1JUYB-65">
          <mxGeometry relative="1" as="geometry" />
        </mxCell>
        <mxCell id="5eozCe6tMsFJtmX1JUYB-52" value="升级组件和修改dockerFile" style="rounded=0;whiteSpace=wrap;html=1;fillColor=#f5f5f5;fontColor=#333333;strokeColor=#666666;" vertex="1" parent="1">
          <mxGeometry x="1390" y="460" width="120" height="60" as="geometry" />
        </mxCell>
        <mxCell id="5eozCe6tMsFJtmX1JUYB-53" style="edgeStyle=orthogonalEdgeStyle;rounded=0;orthogonalLoop=1;jettySize=auto;html=1;exitX=0.5;exitY=1;exitDx=0;exitDy=0;" edge="1" parent="1" source="5eozCe6tMsFJtmX1JUYB-54" target="5eozCe6tMsFJtmX1JUYB-52">
          <mxGeometry relative="1" as="geometry" />
        </mxCell>
        <mxCell id="5eozCe6tMsFJtmX1JUYB-54" value="将acm的配置转移到MSE的Nacos" style="rounded=0;whiteSpace=wrap;html=1;" vertex="1" parent="1">
          <mxGeometry x="1390" y="360" width="120" height="60" as="geometry" />
        </mxCell>
        <mxCell id="5eozCe6tMsFJtmX1JUYB-80" value="" style="edgeStyle=orthogonalEdgeStyle;rounded=0;orthogonalLoop=1;jettySize=auto;html=1;fontSize=14;fontColor=none;" edge="1" parent="1" source="5eozCe6tMsFJtmX1JUYB-56" target="5eozCe6tMsFJtmX1JUYB-52">
          <mxGeometry relative="1" as="geometry" />
        </mxCell>
        <mxCell id="5eozCe6tMsFJtmX1JUYB-56" value="&lt;h1&gt;修改内容如下&lt;/h1&gt;&lt;div&gt;&amp;nbsp; &lt;b&gt;&lt;font style=&quot;font-size: 15px&quot;&gt;webapi&lt;/font&gt;&lt;/b&gt;&lt;/div&gt;&lt;div&gt;&amp;nbsp; &amp;lt;PackageReference Include=&quot;Colipu.Extensions.ACM.Aliyun&quot; Version=&quot;3.1.0&quot; /&amp;gt;&lt;br&gt;&lt;/div&gt;&lt;div&gt;&amp;nbsp; &amp;nbsp;&lt;/div&gt;&lt;div&gt;&amp;nbsp;&lt;b&gt;&lt;font style=&quot;font-size: 14px&quot;&gt;dockerFile&lt;/font&gt;&lt;/b&gt;&lt;/div&gt;&lt;div&gt;&lt;div&gt;ENV ASPNETCORE_ACM_ALIYUN_NAMESPACE $ASPNETCORE_ACM_ALIYUN_NAMESPACE&lt;/div&gt;&lt;div&gt;ENV ASPNETCORE_ACM_ALIYUN_ACCESS_KEY $ASPNETCORE_ACM_ALIYUN_ACCESS_KEY&lt;/div&gt;&lt;div&gt;ENV ASPNETCORE_ACM_ALIYUN_SECRET_KEY $ASPNETCORE_ACM_ALIYUN_SECRET_KEY&lt;/div&gt;&lt;div&gt;ENV ASPNETCORE_ACM_ALIYUN_DATA_ID $ASPNETCORE_ACM_ALIYUN_DATA_ID&lt;/div&gt;&lt;div&gt;ENV ASPNETCORE_ACM_ALIYUN_GROUP $ASPNETCORE_ACM_ALIYUN_GROUP&lt;/div&gt;&lt;/div&gt;&lt;div&gt;&lt;b&gt;&lt;font style=&quot;font-size: 14px&quot;&gt;&amp;nbsp; &amp;nbsp;&lt;/font&gt;&lt;/b&gt;&lt;/div&gt;&lt;div&gt;&lt;b&gt;&lt;font style=&quot;font-size: 14px&quot;&gt;&lt;br&gt;&lt;/font&gt;&lt;/b&gt;&lt;/div&gt;" style="text;html=1;strokeColor=#666666;fillColor=#f5f5f5;spacing=5;spacingTop=-20;whiteSpace=wrap;overflow=hidden;rounded=0;fontColor=#333333;" vertex="1" parent="1">
          <mxGeometry x="1600" y="395" width="660" height="190" as="geometry" />
        </mxCell>
        <mxCell id="5eozCe6tMsFJtmX1JUYB-75" style="edgeStyle=orthogonalEdgeStyle;rounded=0;orthogonalLoop=1;jettySize=auto;html=1;exitX=0.5;exitY=1;exitDx=0;exitDy=0;fontSize=14;fontColor=none;" edge="1" parent="1" source="5eozCe6tMsFJtmX1JUYB-57" target="5eozCe6tMsFJtmX1JUYB-59">
          <mxGeometry relative="1" as="geometry" />
        </mxCell>
        <mxCell id="5eozCe6tMsFJtmX1JUYB-57" value="修改k8s容器的环境变量" style="rounded=0;whiteSpace=wrap;html=1;fillColor=#dae8fc;strokeColor=#6c8ebf;" vertex="1" parent="1">
          <mxGeometry x="1150" y="890" width="120" height="60" as="geometry" />
        </mxCell>
        <mxCell id="5eozCe6tMsFJtmX1JUYB-59" value="&lt;h1&gt;修改内容如下&lt;/h1&gt;&lt;div&gt;环境变量：&lt;/div&gt;&lt;div&gt;&lt;span style=&quot;white-space: pre&quot;&gt;	&lt;/span&gt;&lt;br&gt;&lt;/div&gt;&lt;div&gt;&lt;span style=&quot;white-space: pre&quot;&gt;	&lt;/span&gt;类型&amp;nbsp; &amp;nbsp; &amp;nbsp; &amp;nbsp; &amp;nbsp; &amp;nbsp; 变量名称&lt;span style=&quot;white-space: pre&quot;&gt;	&lt;/span&gt;&lt;span style=&quot;white-space: pre&quot;&gt;	&lt;/span&gt;变量/变量引用&lt;br&gt;&lt;/div&gt;&lt;div&gt;&amp;nbsp; &amp;nbsp; &amp;nbsp; &amp;nbsp;&amp;nbsp;&lt;/div&gt;&lt;div&gt;&amp;nbsp; &amp;nbsp; &amp;nbsp; &amp;nbsp; 保密字典&amp;nbsp; &amp;nbsp; secret_params&amp;nbsp;&lt;span style=&quot;white-space: pre&quot;&gt;	&lt;/span&gt;app-secre：JAVA_APP_SECRET_PARAMS_MSE&lt;/div&gt;&lt;div&gt;&lt;br&gt;&lt;/div&gt;" style="text;html=1;strokeColor=#6c8ebf;fillColor=#dae8fc;spacing=5;spacingTop=-20;whiteSpace=wrap;overflow=hidden;rounded=0;" vertex="1" parent="1">
          <mxGeometry x="969.06" y="1030" width="481.87" height="240" as="geometry" />
        </mxCell>
        <mxCell id="5eozCe6tMsFJtmX1JUYB-62" value="查看容器是否成功" style="rounded=0;whiteSpace=wrap;html=1;fillColor=#d5e8d4;strokeColor=#82b366;" vertex="1" parent="1">
          <mxGeometry x="380" y="880" width="120" height="60" as="geometry" />
        </mxCell>
        <mxCell id="5eozCe6tMsFJtmX1JUYB-64" value="切换naocs的配置" style="text;html=1;strokeColor=none;fillColor=none;align=center;verticalAlign=middle;whiteSpace=wrap;rounded=0;fontSize=34;fontStyle=1" vertex="1" parent="1">
          <mxGeometry x="810" y="150" width="610" height="80" as="geometry" />
        </mxCell>
        <mxCell id="5eozCe6tMsFJtmX1JUYB-71" style="edgeStyle=orthogonalEdgeStyle;rounded=0;orthogonalLoop=1;jettySize=auto;html=1;exitX=0;exitY=0.5;exitDx=0;exitDy=0;fontSize=14;fontColor=none;" edge="1" parent="1" source="5eozCe6tMsFJtmX1JUYB-65" target="5eozCe6tMsFJtmX1JUYB-68">
          <mxGeometry relative="1" as="geometry" />
        </mxCell>
        <mxCell id="5eozCe6tMsFJtmX1JUYB-72" style="edgeStyle=orthogonalEdgeStyle;rounded=0;orthogonalLoop=1;jettySize=auto;html=1;exitX=1;exitY=0.5;exitDx=0;exitDy=0;fontSize=14;fontColor=none;" edge="1" parent="1" source="5eozCe6tMsFJtmX1JUYB-65" target="5eozCe6tMsFJtmX1JUYB-69">
          <mxGeometry relative="1" as="geometry" />
        </mxCell>
        <mxCell id="5eozCe6tMsFJtmX1JUYB-65" value="构建" style="rounded=0;whiteSpace=wrap;html=1;fillColor=#ffe6cc;strokeColor=#d79b00;" vertex="1" parent="1">
          <mxGeometry x="1390" y="630" width="120" height="60" as="geometry" />
        </mxCell>
        <mxCell id="5eozCe6tMsFJtmX1JUYB-73" style="edgeStyle=orthogonalEdgeStyle;rounded=0;orthogonalLoop=1;jettySize=auto;html=1;exitX=0.5;exitY=1;exitDx=0;exitDy=0;fontSize=14;fontColor=none;" edge="1" parent="1" source="5eozCe6tMsFJtmX1JUYB-68" target="5eozCe6tMsFJtmX1JUYB-57">
          <mxGeometry relative="1" as="geometry" />
        </mxCell>
        <mxCell id="5eozCe6tMsFJtmX1JUYB-68" value="新的配置" style="rounded=0;whiteSpace=wrap;html=1;fontSize=14;fontColor=none;" vertex="1" parent="1">
          <mxGeometry x="1150" y="760" width="120" height="60" as="geometry" />
        </mxCell>
        <mxCell id="5eozCe6tMsFJtmX1JUYB-79" style="edgeStyle=orthogonalEdgeStyle;rounded=0;orthogonalLoop=1;jettySize=auto;html=1;exitX=0.5;exitY=1;exitDx=0;exitDy=0;fontSize=14;fontColor=none;" edge="1" parent="1" source="5eozCe6tMsFJtmX1JUYB-69" target="5eozCe6tMsFJtmX1JUYB-77">
          <mxGeometry relative="1" as="geometry" />
        </mxCell>
        <mxCell id="5eozCe6tMsFJtmX1JUYB-69" value="旧的配置" style="rounded=0;whiteSpace=wrap;html=1;fontSize=14;fontColor=none;" vertex="1" parent="1">
          <mxGeometry x="1655" y="775.31" width="120" height="60" as="geometry" />
        </mxCell>
        <mxCell id="5eozCe6tMsFJtmX1JUYB-76" style="edgeStyle=orthogonalEdgeStyle;rounded=0;orthogonalLoop=1;jettySize=auto;html=1;exitX=0.5;exitY=1;exitDx=0;exitDy=0;fontSize=14;fontColor=none;" edge="1" parent="1" source="5eozCe6tMsFJtmX1JUYB-77" target="5eozCe6tMsFJtmX1JUYB-78">
          <mxGeometry relative="1" as="geometry" />
        </mxCell>
        <mxCell id="5eozCe6tMsFJtmX1JUYB-77" value="修改k8s容器的环境变量" style="rounded=0;whiteSpace=wrap;html=1;fillColor=#dae8fc;strokeColor=#6c8ebf;" vertex="1" parent="1">
          <mxGeometry x="1654.9899999999998" y="890" width="120" height="60" as="geometry" />
        </mxCell>
        <mxCell id="5eozCe6tMsFJtmX1JUYB-78" value="&lt;h1&gt;修改内容如下&lt;/h1&gt;&lt;div&gt;环境变量：&lt;/div&gt;&lt;div&gt;&lt;span&gt;	&lt;/span&gt;&lt;br&gt;&lt;/div&gt;&lt;div&gt;&lt;span&gt;	&lt;/span&gt;&lt;span&gt;	&lt;/span&gt;&lt;span&gt;	&lt;/span&gt;&lt;span style=&quot;white-space: pre&quot;&gt;	&lt;/span&gt;类型&amp;nbsp; &amp;nbsp; &amp;nbsp; &amp;nbsp; &amp;nbsp; &amp;nbsp; 变量名称&lt;span&gt;	&lt;span style=&quot;white-space: pre&quot;&gt;	&lt;/span&gt;&lt;span style=&quot;white-space: pre&quot;&gt;	&lt;/span&gt;&lt;span style=&quot;white-space: pre&quot;&gt;	&lt;/span&gt;&lt;span style=&quot;white-space: pre&quot;&gt;	&lt;/span&gt;&lt;span style=&quot;white-space: pre&quot;&gt;	&lt;/span&gt;&lt;span style=&quot;white-space: pre&quot;&gt;	&lt;/span&gt;&lt;span style=&quot;white-space: pre&quot;&gt;	&lt;/span&gt;&lt;span style=&quot;white-space: pre&quot;&gt;	&lt;/span&gt;&lt;span&gt;	&lt;/span&gt;&lt;span&gt;	&lt;/span&gt;&lt;span&gt;	&lt;/span&gt;&lt;span&gt;	&lt;/span&gt;&lt;span&gt;	&lt;/span&gt;&lt;span&gt;	&lt;/span&gt;&lt;span&gt;	&lt;/span&gt;&lt;span&gt;	&lt;/span&gt;&lt;/span&gt;&lt;span&gt;	&lt;/span&gt;变量/变量引用&lt;br&gt;&lt;/div&gt;&lt;div&gt;&amp;nbsp; &amp;nbsp; &amp;nbsp;&lt;/div&gt;&lt;div&gt;&amp;nbsp; &amp;nbsp; &amp;nbsp; &amp;nbsp; 自定义&amp;nbsp; &amp;nbsp; &amp;nbsp; &amp;nbsp; &amp;nbsp;ASPNETCORE_ACM_ALIYUN_NAMESPACE：命名空间&lt;/div&gt;&lt;div&gt;&amp;nbsp; &amp;nbsp; &amp;nbsp; &amp;nbsp;&amp;nbsp;&lt;/div&gt;&lt;div&gt;&amp;nbsp; &amp;nbsp; &amp;nbsp; &amp;nbsp; 自定义&amp;nbsp; &amp;nbsp; &amp;nbsp; &amp;nbsp; &amp;nbsp;ASPNETCORE_ACM_ALIYUN_ACCESS_KEY:&amp;nbsp; &amp;nbsp;access_key&lt;/div&gt;&lt;div&gt;&lt;br&gt;&lt;/div&gt;&amp;nbsp; &amp;nbsp; &amp;nbsp; &amp;nbsp; 自定义&amp;nbsp; &amp;nbsp; &amp;nbsp; &amp;nbsp; &amp;nbsp;ASPNETCORE_ACM_ALIYUN_SECRET_KEY:&amp;nbsp; secret_key&lt;div&gt;&amp;nbsp; &amp;nbsp; &amp;nbsp; &amp;nbsp;&lt;/div&gt;&lt;div&gt;&amp;nbsp; &amp;nbsp; &amp;nbsp; &amp;nbsp; 自定义&amp;nbsp; &amp;nbsp; &amp;nbsp; &amp;nbsp; &amp;nbsp;ASPNETCORE_ACM_ALIYUN_DATA_ID：nacos的Data ID&lt;br&gt;&lt;/div&gt;&lt;div&gt;&amp;nbsp;&amp;nbsp; &amp;nbsp; &amp;nbsp;&amp;nbsp;&lt;/div&gt;&lt;div&gt;&amp;nbsp; &amp;nbsp; &amp;nbsp; &amp;nbsp; 自定义&amp;nbsp; &amp;nbsp; &amp;nbsp; &amp;nbsp; &amp;nbsp;ASPNETCORE_ACM_ALIYUN_GROUP：erp&lt;br&gt;&lt;/div&gt;&lt;div&gt;&amp;nbsp; &amp;nbsp; &amp;nbsp; &amp;nbsp;&amp;nbsp;&lt;/div&gt;&lt;div&gt;&lt;br&gt;&lt;/div&gt;" style="text;html=1;strokeColor=#6c8ebf;fillColor=#dae8fc;spacing=5;spacingTop=-20;whiteSpace=wrap;overflow=hidden;rounded=0;" vertex="1" parent="1">
          <mxGeometry x="1470" y="1030" width="490" height="240" as="geometry" />
        </mxCell>
      </root>
    </mxGraphModel>
  </diagram>
</mxfile>
